<svg xmlns="http://www.w3.org/2000/svg" width="1880" height="1120" viewBox="0 0 1880 1120"><defs><marker id="arrow" markerWidth="10" markerHeight="10" refX="8" refY="3" orient="auto" markerUnits="strokeWidth"><path d="M0,0 L0,6 L9,3 z" fill="#334155"/></marker><filter id="shadow" x="-10%" y="-10%" width="120%" height="120%"><feDropShadow dx="0" dy="4" stdDeviation="4" flood-opacity="0.15"/></filter></defs><rect width="1880" height="1120" fill="#f8fafc"/><text x="60" y="34" font-family="Inter, Arial, sans-serif" font-size="24" font-weight="700" fill="#0f172a">ERD Portal CNB</text><text x="270" y="34" font-family="Inter, Arial, sans-serif" font-size="13" fill="#64748b">Generated from Sequelize models in backend/src/models</text><path d="M 950 195 L 950 591" stroke="#334155" stroke-width="2" fill="none" marker-end="url(#arrow)" opacity="0.72"/><rect x="882" y="381" width="136" height="22" rx="11" fill="#fff" stroke="#cbd5e1"/><text x="950" y="397" text-anchor="middle" font-size="11" fill="#334155">1:N</text>
<path d="M 210 183 L 580 187" stroke="#334155" stroke-width="2" fill="none" marker-end="url(#arrow)" opacity="0.72"/><rect x="327" y="173" width="136" height="22" rx="11" fill="#fff" stroke="#cbd5e1"/><text x="395" y="189" text-anchor="middle" font-size="11" fill="#334155">1:1</text>
<path d="M 210 183 L 580 187" stroke="#334155" stroke-width="2" fill="none" marker-end="url(#arrow)" opacity="0.72"/><rect x="327" y="173" width="136" height="22" rx="11" fill="#fff" stroke="#cbd5e1"/><text x="395" y="189" text-anchor="middle" font-size="11" fill="#334155">approves 1:N</text>
<path d="M 950 195 L 580 187" stroke="#334155" stroke-width="2" fill="none" marker-end="url(#arrow)" opacity="0.72"/><rect x="697" y="179" width="136" height="22" rx="11" fill="#fff" stroke="#cbd5e1"/><text x="765" y="195" text-anchor="middle" font-size="11" fill="#334155">1:N</text>
<path d="M 210 183 L 580 507" stroke="#334155" stroke-width="2" fill="none" marker-end="url(#arrow)" opacity="0.72"/><rect x="327" y="333" width="136" height="22" rx="11" fill="#fff" stroke="#cbd5e1"/><text x="395" y="349" text-anchor="middle" font-size="11" fill="#334155">1:N</text>
<path d="M 950 195 L 580 507" stroke="#334155" stroke-width="2" fill="none" marker-end="url(#arrow)" opacity="0.72"/><rect x="697" y="339" width="136" height="22" rx="11" fill="#fff" stroke="#cbd5e1"/><text x="765" y="355" text-anchor="middle" font-size="11" fill="#334155">1:N</text>
<path d="M 950 591 L 210 573" stroke="#334155" stroke-width="2" fill="none" marker-end="url(#arrow)" opacity="0.72"/><rect x="512" y="570" width="136" height="22" rx="11" fill="#fff" stroke="#cbd5e1"/><text x="580" y="586" text-anchor="middle" font-size="11" fill="#334155">1:N</text>
<path d="M 950 195 L 210 573" stroke="#334155" stroke-width="2" fill="none" marker-end="url(#arrow)" opacity="0.72"/><rect x="512" y="372" width="136" height="22" rx="11" fill="#fff" stroke="#cbd5e1"/><text x="580" y="388" text-anchor="middle" font-size="11" fill="#334155">1:N</text>
<path d="M 210 183 L 210 573" stroke="#334155" stroke-width="2" fill="none" marker-end="url(#arrow)" opacity="0.72"/><rect x="142" y="366" width="136" height="22" rx="11" fill="#fff" stroke="#cbd5e1"/><text x="210" y="382" text-anchor="middle" font-size="11" fill="#334155">1:N</text>
<path d="M 580 507 L 210 573" stroke="#334155" stroke-width="2" fill="none" marker-end="url(#arrow)" opacity="0.72"/><rect x="327" y="528" width="136" height="22" rx="11" fill="#fff" stroke="#cbd5e1"/><text x="395" y="544" text-anchor="middle" font-size="11" fill="#334155">1:N</text>
<path d="M 210 183 L 210 859" stroke="#334155" stroke-width="2" fill="none" marker-end="url(#arrow)" opacity="0.72"/><rect x="142" y="509" width="136" height="22" rx="11" fill="#fff" stroke="#cbd5e1"/><text x="210" y="525" text-anchor="middle" font-size="11" fill="#334155">1:N</text>
<path d="M 950 591 L 210 859" stroke="#334155" stroke-width="2" fill="none" marker-end="url(#arrow)" opacity="0.72"/><rect x="512" y="713" width="136" height="22" rx="11" fill="#fff" stroke="#cbd5e1"/><text x="580" y="729" text-anchor="middle" font-size="11" fill="#334155">1:N</text><g filter="url(#shadow)"><rect x="60" y="60" width="300" height="246" rx="14" fill="#fff" stroke="#cbd5e1"/><rect x="60" y="60" width="300" height="38" rx="14" fill="#2563eb"/><path d="M 60 84 H 360 V 98 H 60 Z" fill="#2563eb"/><text x="76" y="85" font-family="Inter, Arial, sans-serif" font-size="16" font-weight="700" fill="#fff">user_account</text><text x="76" y="120" font-family="Inter, Arial, sans-serif" font-size="13" fill="#dc2626">id PK</text><text x="76" y="144" font-family="Inter, Arial, sans-serif" font-size="13" fill="#334155">name</text><text x="76" y="168" font-family="Inter, Arial, sans-serif" font-size="13" fill="#9333ea">email UK</text><text x="76" y="192" font-family="Inter, Arial, sans-serif" font-size="13" fill="#334155">password</text><text x="76" y="216" font-family="Inter, Arial, sans-serif" font-size="13" fill="#334155">role</text><text x="76" y="240" font-family="Inter, Arial, sans-serif" font-size="13" fill="#334155">profession</text><text x="76" y="264" font-family="Inter, Arial, sans-serif" font-size="13" fill="#334155">created_at</text><text x="76" y="288" font-family="Inter, Arial, sans-serif" font-size="13" fill="#334155">updated_at</text></g><g filter="url(#shadow)"><rect x="430" y="40" width="300" height="294" rx="14" fill="#fff" stroke="#cbd5e1"/><rect x="430" y="40" width="300" height="38" rx="14" fill="#7c3aed"/><path d="M 430 64 H 730 V 78 H 430 Z" fill="#7c3aed"/><text x="446" y="65" font-family="Inter, Arial, sans-serif" font-size="16" font-weight="700" fill="#fff">teacher_profile</text><text x="446" y="100" font-family="Inter, Arial, sans-serif" font-size="13" fill="#dc2626">id PK</text><text x="446" y="124" font-family="Inter, Arial, sans-serif" font-size="13" fill="#2563eb">user_account_id FK UK</text><text x="446" y="148" font-family="Inter, Arial, sans-serif" font-size="13" fill="#334155">teacher_type</text><text x="446" y="172" font-family="Inter, Arial, sans-serif" font-size="13" fill="#334155">subject</text><text x="446" y="196" font-family="Inter, Arial, sans-serif" font-size="13" fill="#2563eb">classroom_id FK</text><text x="446" y="220" font-family="Inter, Arial, sans-serif" font-size="13" fill="#334155">verification_status</text><text x="446" y="244" font-family="Inter, Arial, sans-serif" font-size="13" fill="#2563eb">approved_by_user_account_id FK</text><text x="446" y="268" font-family="Inter, Arial, sans-serif" font-size="13" fill="#334155">approved_at</text><text x="446" y="292" font-family="Inter, Arial, sans-serif" font-size="13" fill="#334155">created_at</text><text x="446" y="316" font-family="Inter, Arial, sans-serif" font-size="13" fill="#334155">updated_at</text></g><g filter="url(#shadow)"><rect x="800" y="60" width="300" height="270" rx="14" fill="#fff" stroke="#cbd5e1"/><rect x="800" y="60" width="300" height="38" rx="14" fill="#059669"/><path d="M 800 84 H 1100 V 98 H 800 Z" fill="#059669"/><text x="816" y="85" font-family="Inter, Arial, sans-serif" font-size="16" font-weight="700" fill="#fff">classroom</text><text x="816" y="120" font-family="Inter, Arial, sans-serif" font-size="13" fill="#dc2626">id PK</text><text x="816" y="144" font-family="Inter, Arial, sans-serif" font-size="13" fill="#334155">class_name</text><text x="816" y="168" font-family="Inter, Arial, sans-serif" font-size="13" fill="#334155">grade_level</text><text x="816" y="192" font-family="Inter, Arial, sans-serif" font-size="13" fill="#334155">homeroom_teacher</text><text x="816" y="216" font-family="Inter, Arial, sans-serif" font-size="13" fill="#334155">academic_year</text><text x="816" y="240" font-family="Inter, Arial, sans-serif" font-size="13" fill="#334155">student_count</text><text x="816" y="264" font-family="Inter, Arial, sans-serif" font-size="13" fill="#334155">room</text><text x="816" y="288" font-family="Inter, Arial, sans-serif" font-size="13" fill="#334155">created_at</text><text x="816" y="312" font-family="Inter, Arial, sans-serif" font-size="13" fill="#334155">updated_at</text></g><g filter="url(#shadow)"><rect x="800" y="360" width="300" height="462" rx="14" fill="#fff" stroke="#cbd5e1"/><rect x="800" y="360" width="300" height="38" rx="14" fill="#0891b2"/><path d="M 800 384 H 1100 V 398 H 800 Z" fill="#0891b2"/><text x="816" y="385" font-family="Inter, Arial, sans-serif" font-size="16" font-weight="700" fill="#fff">student</text><text x="816" y="420" font-family="Inter, Arial, sans-serif" font-size="13" fill="#dc2626">id PK</text><text x="816" y="444" font-family="Inter, Arial, sans-serif" font-size="13" fill="#9333ea">national_student_id UK</text><text x="816" y="468" font-family="Inter, Arial, sans-serif" font-size="13" fill="#334155">name</text><text x="816" y="492" font-family="Inter, Arial, sans-serif" font-size="13" fill="#2563eb">classroom_id FK</text><text x="816" y="516" font-family="Inter, Arial, sans-serif" font-size="13" fill="#334155">birthplace</text><text x="816" y="540" font-family="Inter, Arial, sans-serif" font-size="13" fill="#334155">birth_date</text><text x="816" y="564" font-family="Inter, Arial, sans-serif" font-size="13" fill="#334155">gender</text><text x="816" y="588" font-family="Inter, Arial, sans-serif" font-size="13" fill="#334155">religion</text><text x="816" y="612" font-family="Inter, Arial, sans-serif" font-size="13" fill="#334155">address</text><text x="816" y="636" font-family="Inter, Arial, sans-serif" font-size="13" fill="#334155">father_name</text><text x="816" y="660" font-family="Inter, Arial, sans-serif" font-size="13" fill="#334155">mother_name</text><text x="816" y="684" font-family="Inter, Arial, sans-serif" font-size="13" fill="#334155">phone_number</text><text x="816" y="708" font-family="Inter, Arial, sans-serif" font-size="13" fill="#334155">email</text><text x="816" y="732" font-family="Inter, Arial, sans-serif" font-size="13" fill="#334155">photo</text><text x="816" y="756" font-family="Inter, Arial, sans-serif" font-size="13" fill="#334155">status</text><text x="816" y="780" font-family="Inter, Arial, sans-serif" font-size="13" fill="#334155">created_at</text><text x="816" y="804" font-family="Inter, Arial, sans-serif" font-size="13" fill="#334155">updated_at</text></g><g filter="url(#shadow)"><rect x="430" y="360" width="300" height="294" rx="14" fill="#fff" stroke="#cbd5e1"/><rect x="430" y="360" width="300" height="38" rx="14" fill="#ea580c"/><path d="M 430 384 H 730 V 398 H 430 Z" fill="#ea580c"/><text x="446" y="385" font-family="Inter, Arial, sans-serif" font-size="16" font-weight="700" fill="#fff">teaching_schedule</text><text x="446" y="420" font-family="Inter, Arial, sans-serif" font-size="13" fill="#dc2626">id PK</text><text x="446" y="444" font-family="Inter, Arial, sans-serif" font-size="13" fill="#2563eb">teacher_user_account_id FK</text><text x="446" y="468" font-family="Inter, Arial, sans-serif" font-size="13" fill="#2563eb">classroom_id FK</text><text x="446" y="492" font-family="Inter, Arial, sans-serif" font-size="13" fill="#334155">subject</text><text x="446" y="516" font-family="Inter, Arial, sans-serif" font-size="13" fill="#334155">day_name</text><text x="446" y="540" font-family="Inter, Arial, sans-serif" font-size="13" fill="#334155">start_time</text><text x="446" y="564" font-family="Inter, Arial, sans-serif" font-size="13" fill="#334155">end_time</text><text x="446" y="588" font-family="Inter, Arial, sans-serif" font-size="13" fill="#334155">status</text><text x="446" y="612" font-family="Inter, Arial, sans-serif" font-size="13" fill="#334155">created_at</text><text x="446" y="636" font-family="Inter, Arial, sans-serif" font-size="13" fill="#334155">updated_at</text></g><g filter="url(#shadow)"><rect x="60" y="390" width="300" height="366" rx="14" fill="#fff" stroke="#cbd5e1"/><rect x="60" y="390" width="300" height="38" rx="14" fill="#dc2626"/><path d="M 60 414 H 360 V 428 H 60 Z" fill="#dc2626"/><text x="76" y="415" font-family="Inter, Arial, sans-serif" font-size="16" font-weight="700" fill="#fff">student_attendance</text><text x="76" y="450" font-family="Inter, Arial, sans-serif" font-size="13" fill="#dc2626">id PK</text><text x="76" y="474" font-family="Inter, Arial, sans-serif" font-size="13" fill="#2563eb">student_id FK</text><text x="76" y="498" font-family="Inter, Arial, sans-serif" font-size="13" fill="#2563eb">classroom_id FK</text><text x="76" y="522" font-family="Inter, Arial, sans-serif" font-size="13" fill="#2563eb">teacher_user_account_id FK</text><text x="76" y="546" font-family="Inter, Arial, sans-serif" font-size="13" fill="#2563eb">teaching_schedule_id FK</text><text x="76" y="570" font-family="Inter, Arial, sans-serif" font-size="13" fill="#334155">attendance_date</text><text x="76" y="594" font-family="Inter, Arial, sans-serif" font-size="13" fill="#334155">day_name</text><text x="76" y="618" font-family="Inter, Arial, sans-serif" font-size="13" fill="#334155">teacher_type</text><text x="76" y="642" font-family="Inter, Arial, sans-serif" font-size="13" fill="#334155">subject</text><text x="76" y="666" font-family="Inter, Arial, sans-serif" font-size="13" fill="#334155">status</text><text x="76" y="690" font-family="Inter, Arial, sans-serif" font-size="13" fill="#334155">note</text><text x="76" y="714" font-family="Inter, Arial, sans-serif" font-size="13" fill="#334155">created_at</text><text x="76" y="738" font-family="Inter, Arial, sans-serif" font-size="13" fill="#334155">updated_at</text></g><g filter="url(#shadow)"><rect x="60" y="760" width="300" height="198" rx="14" fill="#fff" stroke="#cbd5e1"/><rect x="60" y="760" width="300" height="38" rx="14" fill="#9333ea"/><path d="M 60 784 H 360 V 798 H 60 Z" fill="#9333ea"/><text x="76" y="785" font-family="Inter, Arial, sans-serif" font-size="16" font-weight="700" fill="#fff">portal_account_link</text><text x="76" y="820" font-family="Inter, Arial, sans-serif" font-size="13" fill="#dc2626">id PK</text><text x="76" y="844" font-family="Inter, Arial, sans-serif" font-size="13" fill="#2563eb">user_account_id FK</text><text x="76" y="868" font-family="Inter, Arial, sans-serif" font-size="13" fill="#2563eb">student_id FK</text><text x="76" y="892" font-family="Inter, Arial, sans-serif" font-size="13" fill="#334155">link_type</text><text x="76" y="916" font-family="Inter, Arial, sans-serif" font-size="13" fill="#334155">created_at</text><text x="76" y="940" font-family="Inter, Arial, sans-serif" font-size="13" fill="#334155">updated_at</text></g><g filter="url(#shadow)"><rect x="430" y="760" width="300" height="390" rx="14" fill="#fff" stroke="#cbd5e1"/><rect x="430" y="760" width="300" height="38" rx="14" fill="#64748b"/><path d="M 430 784 H 730 V 798 H 430 Z" fill="#64748b"/><text x="446" y="785" font-family="Inter, Arial, sans-serif" font-size="16" font-weight="700" fill="#fff">teacher</text><text x="446" y="820" font-family="Inter, Arial, sans-serif" font-size="13" fill="#dc2626">id PK</text><text x="446" y="844" font-family="Inter, Arial, sans-serif" font-size="13" fill="#9333ea">employee_number UK</text><text x="446" y="868" font-family="Inter, Arial, sans-serif" font-size="13" fill="#334155">name</text><text x="446" y="892" font-family="Inter, Arial, sans-serif" font-size="13" fill="#334155">email</text><text x="446" y="916" font-family="Inter, Arial, sans-serif" font-size="13" fill="#334155">phone_number</text><text x="446" y="940" font-family="Inter, Arial, sans-serif" font-size="13" fill="#334155">subject</text><text x="446" y="964" font-family="Inter, Arial, sans-serif" font-size="13" fill="#334155">last_education</text><text x="446" y="988" font-family="Inter, Arial, sans-serif" font-size="13" fill="#334155">photo</text><text x="446" y="1012" font-family="Inter, Arial, sans-serif" font-size="13" fill="#334155">address</text><text x="446" y="1036" font-family="Inter, Arial, sans-serif" font-size="13" fill="#334155">birth_date</text><text x="446" y="1060" font-family="Inter, Arial, sans-serif" font-size="13" fill="#334155">gender</text><text x="446" y="1084" font-family="Inter, Arial, sans-serif" font-size="13" fill="#334155">status</text><text x="446" y="1108" font-family="Inter, Arial, sans-serif" font-size="13" fill="#334155">created_at</text><text x="446" y="1132" font-family="Inter, Arial, sans-serif" font-size="13" fill="#334155">updated_at</text></g><g filter="url(#shadow)"><rect x="800" y="760" width="300" height="366" rx="14" fill="#fff" stroke="#cbd5e1"/><rect x="800" y="760" width="300" height="38" rx="14" fill="#64748b"/><path d="M 800 784 H 1100 V 798 H 800 Z" fill="#64748b"/><text x="816" y="785" font-family="Inter, Arial, sans-serif" font-size="16" font-weight="700" fill="#fff">principal</text><text x="816" y="820" font-family="Inter, Arial, sans-serif" font-size="13" fill="#dc2626">id PK</text><text x="816" y="844" font-family="Inter, Arial, sans-serif" font-size="13" fill="#9333ea">employee_number UK</text><text x="816" y="868" font-family="Inter, Arial, sans-serif" font-size="13" fill="#334155">name</text><text x="816" y="892" font-family="Inter, Arial, sans-serif" font-size="13" fill="#334155">email</text><text x="816" y="916" font-family="Inter, Arial, sans-serif" font-size="13" fill="#334155">phone_number</text><text x="816" y="940" font-family="Inter, Arial, sans-serif" font-size="13" fill="#334155">photo</text><text x="816" y="964" font-family="Inter, Arial, sans-serif" font-size="13" fill="#334155">start_period</text><text x="816" y="988" font-family="Inter, Arial, sans-serif" font-size="13" fill="#334155">end_period</text><text x="816" y="1012" font-family="Inter, Arial, sans-serif" font-size="13" fill="#334155">address</text><text x="816" y="1036" font-family="Inter, Arial, sans-serif" font-size="13" fill="#334155">last_education</text><text x="816" y="1060" font-family="Inter, Arial, sans-serif" font-size="13" fill="#334155">status</text><text x="816" y="1084" font-family="Inter, Arial, sans-serif" font-size="13" fill="#334155">created_at</text><text x="816" y="1108" font-family="Inter, Arial, sans-serif" font-size="13" fill="#334155">updated_at</text></g><g filter="url(#shadow)"><rect x="1170" y="60" width="300" height="534" rx="14" fill="#fff" stroke="#cbd5e1"/><rect x="1170" y="60" width="300" height="38" rx="14" fill="#64748b"/><path d="M 1170 84 H 1470 V 98 H 1170 Z" fill="#64748b"/><text x="1186" y="85" font-family="Inter, Arial, sans-serif" font-size="16" font-weight="700" fill="#fff">admission_application</text><text x="1186" y="120" font-family="Inter, Arial, sans-serif" font-size="13" fill="#dc2626">id PK</text><text x="1186" y="144" font-family="Inter, Arial, sans-serif" font-size="13" fill="#334155">registration_type</text><text x="1186" y="168" font-family="Inter, Arial, sans-serif" font-size="13" fill="#334155">target_level</text><text x="1186" y="192" font-family="Inter, Arial, sans-serif" font-size="13" fill="#334155">full_name</text><text x="1186" y="216" font-family="Inter, Arial, sans-serif" font-size="13" fill="#334155">national_student_id</text><text x="1186" y="240" font-family="Inter, Arial, sans-serif" font-size="13" fill="#334155">birthplace</text><text x="1186" y="264" font-family="Inter, Arial, sans-serif" font-size="13" fill="#334155">birth_date</text><text x="1186" y="288" font-family="Inter, Arial, sans-serif" font-size="13" fill="#334155">gender</text><text x="1186" y="312" font-family="Inter, Arial, sans-serif" font-size="13" fill="#334155">religion</text><text x="1186" y="336" font-family="Inter, Arial, sans-serif" font-size="13" fill="#334155">address</text><text x="1186" y="360" font-family="Inter, Arial, sans-serif" font-size="13" fill="#334155">parent_name</text><text x="1186" y="384" font-family="Inter, Arial, sans-serif" font-size="13" fill="#334155">father_name</text><text x="1186" y="408" font-family="Inter, Arial, sans-serif" font-size="13" fill="#334155">mother_name</text><text x="1186" y="432" font-family="Inter, Arial, sans-serif" font-size="13" fill="#334155">phone_number</text><text x="1186" y="456" font-family="Inter, Arial, sans-serif" font-size="13" fill="#334155">email</text><text x="1186" y="480" font-family="Inter, Arial, sans-serif" font-size="13" fill="#334155">status</text><text x="1186" y="504" font-family="Inter, Arial, sans-serif" font-size="13" fill="#334155">academic_year</text><text x="1186" y="528" font-family="Inter, Arial, sans-serif" font-size="13" fill="#334155">files</text><text x="1186" y="552" font-family="Inter, Arial, sans-serif" font-size="13" fill="#334155">created_at</text><text x="1186" y="576" font-family="Inter, Arial, sans-serif" font-size="13" fill="#334155">updated_at</text></g><g filter="url(#shadow)"><rect x="1170" y="520" width="300" height="438" rx="14" fill="#fff" stroke="#cbd5e1"/><rect x="1170" y="520" width="300" height="38" rx="14" fill="#64748b"/><path d="M 1170 544 H 1470 V 558 H 1170 Z" fill="#64748b"/><text x="1186" y="545" font-family="Inter, Arial, sans-serif" font-size="16" font-weight="700" fill="#fff">school_profile</text><text x="1186" y="580" font-family="Inter, Arial, sans-serif" font-size="13" fill="#dc2626">id PK</text><text x="1186" y="604" font-family="Inter, Arial, sans-serif" font-size="13" fill="#334155">school_name</text><text x="1186" y="628" font-family="Inter, Arial, sans-serif" font-size="13" fill="#334155">npsn</text><text x="1186" y="652" font-family="Inter, Arial, sans-serif" font-size="13" fill="#334155">address</text><text x="1186" y="676" font-family="Inter, Arial, sans-serif" font-size="13" fill="#334155">phone_number</text><text x="1186" y="700" font-family="Inter, Arial, sans-serif" font-size="13" fill="#334155">email</text><text x="1186" y="724" font-family="Inter, Arial, sans-serif" font-size="13" fill="#334155">website</text><text x="1186" y="748" font-family="Inter, Arial, sans-serif" font-size="13" fill="#334155">logo</text><text x="1186" y="772" font-family="Inter, Arial, sans-serif" font-size="13" fill="#334155">vision</text><text x="1186" y="796" font-family="Inter, Arial, sans-serif" font-size="13" fill="#334155">mission</text><text x="1186" y="820" font-family="Inter, Arial, sans-serif" font-size="13" fill="#334155">history</text><text x="1186" y="844" font-family="Inter, Arial, sans-serif" font-size="13" fill="#334155">facility</text><text x="1186" y="868" font-family="Inter, Arial, sans-serif" font-size="13" fill="#334155">school_structure</text><text x="1186" y="892" font-family="Inter, Arial, sans-serif" font-size="13" fill="#334155">accreditation</text><text x="1186" y="916" font-family="Inter, Arial, sans-serif" font-size="13" fill="#334155">created_at</text><text x="1186" y="940" font-family="Inter, Arial, sans-serif" font-size="13" fill="#334155">updated_at</text></g><g filter="url(#shadow)"><rect x="1540" y="60" width="300" height="222" rx="14" fill="#fff" stroke="#cbd5e1"/><rect x="1540" y="60" width="300" height="38" rx="14" fill="#64748b"/><path d="M 1540 84 H 1840 V 98 H 1540 Z" fill="#64748b"/><text x="1556" y="85" font-family="Inter, Arial, sans-serif" font-size="16" font-weight="700" fill="#fff">activity</text><text x="1556" y="120" font-family="Inter, Arial, sans-serif" font-size="13" fill="#dc2626">id PK</text><text x="1556" y="144" font-family="Inter, Arial, sans-serif" font-size="13" fill="#334155">title</text><text x="1556" y="168" font-family="Inter, Arial, sans-serif" font-size="13" fill="#334155">date</text><text x="1556" y="192" font-family="Inter, Arial, sans-serif" font-size="13" fill="#334155">description</text><text x="1556" y="216" font-family="Inter, Arial, sans-serif" font-size="13" fill="#334155">image</text><text x="1556" y="240" font-family="Inter, Arial, sans-serif" font-size="13" fill="#334155">created_at</text><text x="1556" y="264" font-family="Inter, Arial, sans-serif" font-size="13" fill="#334155">updated_at</text></g><g filter="url(#shadow)"><rect x="1540" y="300" width="300" height="246" rx="14" fill="#fff" stroke="#cbd5e1"/><rect x="1540" y="300" width="300" height="38" rx="14" fill="#64748b"/><path d="M 1540 324 H 1840 V 338 H 1540 Z" fill="#64748b"/><text x="1556" y="325" font-family="Inter, Arial, sans-serif" font-size="16" font-weight="700" fill="#fff">announcement</text><text x="1556" y="360" font-family="Inter, Arial, sans-serif" font-size="13" fill="#dc2626">id PK</text><text x="1556" y="384" font-family="Inter, Arial, sans-serif" font-size="13" fill="#334155">title</text><text x="1556" y="408" font-family="Inter, Arial, sans-serif" font-size="13" fill="#334155">date</text><text x="1556" y="432" font-family="Inter, Arial, sans-serif" font-size="13" fill="#334155">content</text><text x="1556" y="456" font-family="Inter, Arial, sans-serif" font-size="13" fill="#334155">category</text><text x="1556" y="480" font-family="Inter, Arial, sans-serif" font-size="13" fill="#334155">image</text><text x="1556" y="504" font-family="Inter, Arial, sans-serif" font-size="13" fill="#334155">created_at</text><text x="1556" y="528" font-family="Inter, Arial, sans-serif" font-size="13" fill="#334155">updated_at</text></g><g filter="url(#shadow)"><rect x="1540" y="540" width="300" height="222" rx="14" fill="#fff" stroke="#cbd5e1"/><rect x="1540" y="540" width="300" height="38" rx="14" fill="#64748b"/><path d="M 1540 564 H 1840 V 578 H 1540 Z" fill="#64748b"/><text x="1556" y="565" font-family="Inter, Arial, sans-serif" font-size="16" font-weight="700" fill="#fff">gallery</text><text x="1556" y="600" font-family="Inter, Arial, sans-serif" font-size="13" fill="#dc2626">id PK</text><text x="1556" y="624" font-family="Inter, Arial, sans-serif" font-size="13" fill="#334155">title</text><text x="1556" y="648" font-family="Inter, Arial, sans-serif" font-size="13" fill="#334155">image</text><text x="1556" y="672" font-family="Inter, Arial, sans-serif" font-size="13" fill="#334155">description</text><text x="1556" y="696" font-family="Inter, Arial, sans-serif" font-size="13" fill="#334155">category</text><text x="1556" y="720" font-family="Inter, Arial, sans-serif" font-size="13" fill="#334155">created_at</text><text x="1556" y="744" font-family="Inter, Arial, sans-serif" font-size="13" fill="#334155">updated_at</text></g></svg>